P2
3 3
255
10 100 11
100 255 12
100 255 12
