P2
2 2
255
10 100
100 1
