P2
1 3
245
23 74 2