P2
# a comment where it belongs
2 2
# second
255
0 10
10 40