P2
# a comment where it belongs
# asdfs
2 2
# second
# asdffsad
255
0 10
10 42