P2
1 2
255
5 -1